<?xml version="1.0" encoding="utf-8"?>
<!-- Generator: Adobe Illustrator 16.0.0, SVG Export Plug-In . SVG Version: 6.00 Build 0)  -->
<!DOCTYPE svg PUBLIC "-//W3C//DTD SVG 1.1//EN" "http://www.w3.org/Graphics/SVG/1.1/DTD/svg11.dtd">
<svg version="1.1" id="Layer_1" xmlns="http://www.w3.org/2000/svg" xmlns:xlink="http://www.w3.org/1999/xlink" x="0px" y="0px"
	 width="574.553px" height="249.617px" viewBox="0 0 574.553 249.617" enable-background="new 0 0 574.553 249.617"
	 xml:space="preserve">
<g>
	<g>
		<g>
			<path fill-rule="evenodd" clip-rule="evenodd" fill="#00CCB8" d="M111.761,0c61.708,0,111.753,50.057,111.753,111.769
				s-50.045,111.755-111.753,111.755c-15.917,0-31.051-3.334-44.756-9.328c11.956,5.04,25.095,7.816,38.887,7.816
				c55.389,0,100.294-44.918,100.294-100.296c0-55.392-44.905-100.315-100.294-100.307C50.503,21.41,5.587,66.325,5.587,121.717
				c0,31.918,14.924,60.362,38.18,78.732C17.15,180.023,0,147.898,0,111.767C0,50.057,50.051,0,111.761,0"/>
		</g>
		<g>
			<g>
				<path fill-rule="evenodd" clip-rule="evenodd" fill="#00726C" d="M182.568,177.255c0,7.338-5.959,13.289-13.292,13.289H49.671
					c-7.341,0-13.29-5.951-13.29-13.289V57.65c0-7.338,5.949-13.29,13.29-13.29h119.604c7.333,0,13.292,5.952,13.292,13.29V177.255z
					"/>
				<path fill-rule="evenodd" clip-rule="evenodd" fill="#00726C" d="M166.417,165.851c0,5.724-4.636,10.357-10.356,10.357H62.884
					c-5.718,0-10.359-4.634-10.359-10.357V72.672c0-5.718,4.642-10.354,10.359-10.354h93.176c5.72,0,10.356,4.636,10.356,10.354
					V165.851z"/>
			</g>
			<path fill="#FFFFFF" d="M172.137,120.086h-8.548l-5.386-14.852c-0.3-0.828-1.102-1.358-1.987-1.315
				c-0.879,0.047-1.625,0.664-1.835,1.519l-9.958,40.424l-7.186-68.262c-0.105-0.998-0.934-1.764-1.937-1.79
				c-0.998-0.009-1.87,0.696-2.027,1.687l-7.64,48.319l-4.253-16.875c-0.23-0.912-1.059-1.544-2.004-1.51
				c-0.94,0.031-1.732,0.712-1.902,1.637l-7.566,41.117L97.392,85.625c-0.179-0.924-0.979-1.599-1.92-1.619
				c-0.928-0.045-1.769,0.618-1.988,1.534l-12.622,52.683L66.27,98.206c-0.278-0.763-0.99-1.282-1.802-1.313
				c-0.815-0.035-1.562,0.431-1.897,1.171l-10.007,22.022h-9.829c-1.104,0-2,0.896-2,2s0.896,2,2,2h11.117
				c0.784,0,1.496-0.458,1.821-1.172l8.516-18.741l15.193,41.662c0.302,0.829,1.118,1.354,1.993,1.312
				c0.881-0.051,1.625-0.673,1.831-1.531l12.018-50.164l12.771,65.887c0.182,0.94,1.006,1.619,1.963,1.619c0.003,0,0.006,0,0.009,0
				c0.961-0.005,1.784-0.692,1.958-1.638l7.821-42.498l4.397,17.448c0.233,0.922,1.092,1.543,2.029,1.509
				c0.949-0.043,1.737-0.747,1.886-1.686l6.793-42.961l6.792,64.517c0.102,0.967,0.883,1.72,1.852,1.786
				c0.975,0.061,1.846-0.573,2.079-1.517l11.116-45.126l3.617,9.976c0.287,0.792,1.039,1.318,1.88,1.318h9.95c1.104,0,2-0.896,2-2
				S173.241,120.086,172.137,120.086z"/>
		</g>
	</g>
	<g>
		<path fill="#FFFFFF" d="M255.771,76.729c-2.244,0-4.209,0.83-5.839,2.466c-1.643,1.647-2.482,3.647-2.496,5.943l-0.728,123.713
			c-0.001,0.133,0.051,0.26,0.145,0.354c0.093,0.094,0.22,0.147,0.353,0.148l15.319,0.09c0.001,0,0.002,0,0.003,0
			c0.275,0,0.499-0.222,0.5-0.497l0.728-123.713c0.013-2.287-0.738-4.291-2.233-5.957C260.015,77.6,258.097,76.742,255.771,76.729z"
			/>
		<path fill="#FFFFFF" d="M255.491,72.844c0.001,0,0.045,0,0.046,0c1.893,0,3.529-0.679,4.864-2.02
			c1.345-1.35,2.032-3.016,2.044-4.952c0.012-1.943-0.692-3.592-2.092-4.901c-1.391-1.296-3-1.959-4.834-1.969
			c-2.012,0-3.679,0.682-4.954,2.027c-1.28,1.347-1.935,3.01-1.946,4.943c-0.011,1.823,0.69,3.438,2.083,4.802
			C252.089,72.137,253.701,72.833,255.491,72.844z M255.537,72.342L255.537,72.342v0.002V72.342z"/>
		<path fill="#FFFFFF" d="M340.625,121.52c-3.043-3.31-6.771-5.928-11.081-7.782c-4.306-1.852-9.22-2.806-14.606-2.838l-0.196,0
			c-4.854,0-9.63,1.083-14.197,3.22c-4.151,1.941-7.606,4.705-10.289,8.226l0.017-2.77c0.009-1.609-0.2-3.092-0.623-4.411
			c-0.437-1.351-1.201-2.497-2.272-3.407c-1.095-0.923-2.668-1.398-4.731-1.41c-2.241,0-4.202,0.797-5.83,2.369
			c-1.646,1.589-2.488,3.56-2.502,5.859l-0.533,90.615c-0.001,0.133,0.051,0.26,0.145,0.354c0.093,0.094,0.22,0.147,0.353,0.148
			l14.963,0.088c0,0,0.002,0,0.003,0c0.275,0,0.499-0.222,0.5-0.497l0.363-61.676c0.018-3.059,0.592-5.974,1.707-8.664
			c1.115-2.697,2.683-5.1,4.66-7.141c1.976-2.04,4.328-3.662,6.993-4.821c2.625-1.139,5.452-1.717,8.402-1.717l0.135,0
			c2.998,0.018,5.859,0.658,8.506,1.903c2.653,1.249,5.021,2.933,7.039,5.004c2.01,2.067,3.608,4.519,4.75,7.285
			c1.141,2.771,1.709,5.723,1.691,8.771l-0.326,55.525c-0.013,2.175,0.741,4.09,2.241,5.693c1.507,1.612,3.362,2.437,5.515,2.449
			c0.001,0,0.056,0,0.057,0c2.24,0,4.174-0.799,5.747-2.376c1.582-1.587,2.391-3.557,2.404-5.854l0.326-55.525
			c0.031-5.339-0.758-10.33-2.347-14.834C346.014,128.792,343.664,124.826,340.625,121.52z M341.477,211.396L341.477,211.396v0.002
			V211.396z"/>
		<path fill="#FFFFFF" d="M398.569,120.031c0.014-2.311-0.604-4.024-1.838-5.094c-1.188-1.024-2.64-1.709-4.317-2.035
			c-1.631-0.316-3.361-0.447-5.184-0.401c-1.53,0.044-2.842,0.065-3.932,0.066l0.298-21.202c0.014-2.159-0.764-4.189-2.31-6.035
			c-1.57-1.867-3.521-2.819-5.851-2.833c-2.384,0-4.331,0.936-5.79,2.78c-1.44,1.822-2.177,3.838-2.19,5.993l-0.124,21.203
			c-1.209-0.014-2.53-0.051-3.936-0.112c-1.705-0.071-3.336,0.075-4.856,0.438c-1.568,0.372-2.907,1.075-3.98,2.091
			c-1.113,1.052-1.685,2.691-1.698,4.873c-0.013,2.189,0.573,3.839,1.739,4.903c1.126,1.031,2.49,1.718,4.054,2.042
			c1.515,0.318,3.145,0.449,4.835,0.4c1.439-0.043,2.745-0.065,3.919-0.065h0.017l-0.485,82.517
			c-0.001,0.133,0.051,0.26,0.145,0.354c0.093,0.094,0.22,0.147,0.353,0.148l14.962,0.088c0.001,0,0.002,0,0.003,0
			c0.274,0,0.498-0.222,0.5-0.497l0.485-82.517c1.069,0.014,2.364,0.05,3.936,0.112c1.813,0.077,3.525-0.041,5.103-0.341
			c1.621-0.305,3.051-0.973,4.248-1.984C397.919,123.871,398.557,122.225,398.569,120.031z"/>
		<path fill="#FFFFFF" d="M468.513,126.733c-3.505-4.456-7.851-8.115-12.916-10.876c-5.082-2.77-10.877-4.193-17.224-4.231
			l-0.282-0.001c-6.589,0-12.603,1.383-17.876,4.112c-5.338,2.764-9.966,6.492-13.757,11.079c-3.79,4.589-6.757,9.948-8.818,15.931
			c-2.062,5.973-3.127,12.197-3.164,18.5c-0.04,6.772,0.918,13.311,2.849,19.433c1.935,6.138,4.841,11.597,8.636,16.225
			c3.795,4.636,8.502,8.388,13.989,11.153c5.488,2.768,11.907,4.192,19.079,4.234l0.327,0.001c4.285,0,8.27-0.5,11.842-1.485
			c3.626-1.002,7.519-2.354,11.569-4.021c0.233-0.097,0.358-0.352,0.292-0.595l-3.312-12.14c-0.036-0.13-0.123-0.241-0.241-0.306
			c-0.117-0.066-0.257-0.082-0.388-0.04c-3.047,0.934-6.276,1.794-9.601,2.557c-3.189,0.733-6.427,1.105-9.62,1.105l-0.246-0.001
			c-3.943-0.022-7.643-0.85-10.994-2.459c-3.356-1.609-6.288-3.779-8.714-6.448c-2.424-2.669-4.35-5.852-5.724-9.462
			c-1.315-3.457-2-7.094-2.036-10.817l57.38,0.337c3.206,0,5.646-0.563,7.249-1.676c1.685-1.172,2.549-3.616,2.57-7.267
			c0.035-5.929-0.897-11.83-2.772-17.54C474.732,136.332,472.009,131.184,468.513,126.733z M426.773,128.044
			c2.96-1.711,6.649-2.579,10.966-2.579l0.196,0c3.804,0.022,7.248,0.961,10.234,2.792c3.007,1.848,5.581,4.251,7.649,7.146
			c2.08,2.912,3.715,6.222,4.859,9.836c1.09,3.451,1.713,6.913,1.854,10.302l-50.564-0.298c0.498-3.498,1.326-7.045,2.462-10.549
			c1.188-3.668,2.804-6.96,4.8-9.785C421.215,132.099,423.753,129.789,426.773,128.044z"/>
		<path fill="#FFFFFF" d="M572.319,114.747c-1.51-1.677-3.367-2.534-5.521-2.547l-0.11,0c-2.304,0-4.051,0.452-5.194,1.343
			c-1.153,0.9-1.966,2.104-2.416,3.58c-0.438,1.418-0.664,3.017-0.674,4.752l-0.02,3.314c-2.967-4.03-6.713-7.199-11.156-9.435
			c-4.905-2.463-10.188-3.729-15.698-3.762l-0.266-0.001c-6.597,0-12.475,1.48-17.47,4.398c-5.044,2.949-9.373,6.865-12.866,11.638
			c-3.492,4.77-6.157,10.222-7.919,16.205c-1.763,5.971-2.674,12.067-2.709,18.12c-0.036,6.049,0.835,12.097,2.588,17.976
			c1.754,5.887,4.415,11.279,7.909,16.026c3.499,4.758,7.843,8.663,12.91,11.607c5.082,2.954,10.939,4.472,17.41,4.51l0.215,0.001
			c5.435,0,10.629-1.205,15.438-3.581c4.412-2.179,8.165-5.254,11.175-9.152l-0.29,49.286c-0.001,0.133,0.051,0.26,0.145,0.354
			c0.093,0.094,0.22,0.147,0.353,0.148l15.141,0.089c0.001,0,0.002,0,0.003,0c0.274,0,0.498-0.222,0.5-0.497l0.757-128.597
			C574.565,118.354,573.813,116.412,572.319,114.747z M532.647,197.914l-0.198-0.001c-4.627-0.027-8.6-1.178-11.808-3.418
			c-3.234-2.255-5.863-5.166-7.813-8.653c-1.964-3.503-3.421-7.45-4.331-11.733c-0.912-4.282-1.363-8.509-1.34-12.562
			c0.024-4.051,0.524-8.24,1.486-12.453c0.959-4.205,2.46-8.011,4.461-11.312c1.991-3.284,4.651-6.013,7.907-8.111
			c3.195-2.06,7.182-3.104,11.85-3.104l0.187,0c3.121,0.019,6.168,0.662,9.054,1.913c2.887,1.252,5.522,3.029,7.835,5.282
			c2.071,2.011,3.701,4.254,4.844,6.667c1.15,2.436,2.022,4.991,2.591,7.596c0.571,2.631,0.941,5.376,1.1,8.158
			c0.16,2.838,0.233,5.657,0.217,8.38c-0.025,4.162-0.524,8.289-1.485,12.268c-0.956,3.961-2.512,7.548-4.622,10.661
			c-2.104,3.105-4.851,5.654-8.165,7.576C541.158,196.956,537.199,197.914,532.647,197.914z"/>
	</g>
</g>
</svg>
